<?xml version="1.0" encoding="UTF-8"?>
<svg version="1.1" xmlns="http://www.w3.org/2000/svg" width="216" height="233">
<path d="M0 0 C1.05419128 -0.00571014 2.10838257 -0.01142029 3.19451904 -0.01730347 C4.35092896 -0.01842133 5.50733887 -0.01953918 6.6987915 -0.02069092 C7.91693542 -0.02565582 9.13507935 -0.03062073 10.39013672 -0.03573608 C13.73331369 -0.04784638 17.07642809 -0.05530354 20.41961956 -0.05974674 C22.50971178 -0.06267952 24.59979853 -0.06678476 26.689888 -0.07125092 C33.2332773 -0.08492487 39.77665408 -0.09459145 46.32005668 -0.09845281 C53.86576313 -0.10293039 61.41128816 -0.12046466 68.95693946 -0.1494534 C74.79400747 -0.17109714 80.63102455 -0.18115856 86.46813226 -0.18249393 C89.95208987 -0.18354024 93.43587692 -0.18941045 96.91979218 -0.20731354 C100.80972595 -0.22691395 104.69943459 -0.2224945 108.5894165 -0.21600342 C109.73772949 -0.2252182 110.88604248 -0.23443298 112.06915283 -0.243927 C118.12335425 -0.21228204 122.58820438 0.1427998 127.90289307 3.14044189 C130.1443708 5.52201199 130.87560419 7.05083587 130.95758057 10.32403564 C130.63361308 14.61308342 130.21095341 18.09702638 126.90289307 21.14044189 C126.24289307 21.14044189 125.58289307 21.14044189 124.90289307 21.14044189 C124.90289307 21.80044189 124.90289307 22.46044189 124.90289307 23.14044189 C112.75612743 24.42913325 100.60971284 24.28606787 88.41070557 24.27325439 C86.1335143 24.27392951 83.8563231 24.27490126 81.57913208 24.27615356 C76.82360137 24.27762137 72.06808954 24.27550599 67.31256104 24.27081299 C61.25537673 24.26512282 55.19823682 24.26839608 49.14105415 24.27438545 C44.44295933 24.27802148 39.74487479 24.27683847 35.04677963 24.27425766 C32.81514353 24.27359644 30.58350645 24.27438823 28.35187149 24.27673721 C8.40789525 24.29312499 8.40789525 24.29312499 -0.76947021 23.81964111 C-1.88927277 23.76283173 -3.00907532 23.70602234 -4.16281128 23.64749146 C-8.19621742 22.95051438 -11.0505153 21.52924332 -13.53070068 18.23809814 C-13.86198975 17.56649658 -14.19327881 16.89489502 -14.53460693 16.20294189 C-14.88394287 15.53391846 -15.23327881 14.86489502 -15.59320068 14.17559814 C-16.26052819 11.48042271 -15.46753505 10.48358648 -14.09710693 8.14044189 C-13.99398193 7.27419189 -13.89085693 6.40794189 -13.78460693 5.51544189 C-13.55773193 4.73169189 -13.33085693 3.94794189 -13.09710693 3.14044189 C-10.72210693 1.89044189 -10.72210693 1.89044189 -8.09710693 1.14044189 C-5.1056681 0.14329562 -3.1243722 0.01013175 0 0 Z " fill="#141414" transform="translate(50.09710693359375,53.85955810546875)"/>
<path d="M0 0 C2.68779676 -0.00205889 5.37558683 -0.00582125 8.0633812 -0.00990677 C12.37175123 -0.01582891 16.68008523 -0.0158642 20.98845673 -0.011446 C22.59449746 -0.01041445 24.20054011 -0.01095307 25.80657959 -0.01320457 C51.43052385 -0.04285137 51.43052385 -0.04285137 57.38164902 4.12293625 C59.52886721 6.47794975 60.31931221 8.08398939 60.51055527 11.27137375 C60.27215723 15.62033188 59.75157558 17.66764202 56.94414902 21.12293625 C53.4108397 23.88064108 51.71115488 24.25512951 47.30083847 24.32825851 C45.69417313 24.35816124 45.69417313 24.35816124 44.0550499 24.38866806 C42.29279068 24.41375191 42.29279068 24.41375191 40.49493027 24.4393425 C39.27054245 24.46021423 38.04615463 24.48108597 36.78466415 24.50259018 C33.44805775 24.5577198 30.11145471 24.6081451 26.7747345 24.65556717 C24.69649217 24.68540261 22.61827853 24.71678396 20.54006577 24.74860764 C2.17540419 25.02809134 -16.18887676 25.22462766 -34.55585098 25.24793625 C-35.93926178 25.25181854 -35.93926178 25.25181854 -37.35062027 25.25577927 C-47.44506142 25.27836902 -57.53325995 25.1442246 -67.62225723 24.80262375 C-69.01165764 24.76964691 -69.01165764 24.76964691 -70.42912674 24.73600388 C-75.27277184 24.54117739 -78.68907591 24.25923055 -82.61835098 21.12293625 C-84.69628336 18.76794622 -85.57254566 17.13065345 -85.71600723 13.97449875 C-85.37049642 8.90138872 -84.37882721 5.76945865 -80.61835098 2.12293625 C-75.79633259 -0.28807295 -68.80561707 0.69034522 -63.43085098 0.56043625 C-62.61242722 0.53958969 -61.79400345 0.51874313 -60.95077896 0.49726486 C-40.63790689 0.00142661 -20.31769843 0.01226968 0 0 Z " fill="#080808" transform="translate(120.61835098266602,137.8770637512207)"/>
<path d="M0 0 C2.60931242 0.02948341 5.21870188 0.0528114 7.828125 0.06988525 C11.44674471 0.09697369 15.06395994 0.15034274 18.68212891 0.21231079 C20.27409592 0.21894241 20.27409592 0.21894241 21.89822388 0.22570801 C26.31306818 0.32943583 29.03501158 0.39554816 32.86914062 2.70962524 C35.5049716 5.64184551 36.74259922 7.24429638 37.11181641 11.23184204 C36.70484611 15.95269744 35.35983543 18.35013402 31.98681641 21.60684204 C27.08000327 24.41073526 21.67126792 23.89559401 16.19384766 23.82168579 C13.63288852 23.79824233 13.63288852 23.79824233 10.48681641 24.41934204 C7.57252177 24.8937621 5.66692832 24.43036442 2.79931641 23.85684204 C1.82994141 24.04246704 0.86056641 24.22809204 -0.13818359 24.41934204 C-3.7330196 24.93289004 -5.87200041 24.20416619 -9.20068359 22.85684204 C-9.20068359 23.51684204 -9.20068359 24.17684204 -9.20068359 24.85684204 C-10.43818359 24.69184204 -11.67568359 24.52684204 -12.95068359 24.35684204 C-20.44831048 23.52640868 -27.79943774 23.36902771 -35.20068359 24.85684204 C-36.00505859 24.69184204 -36.80943359 24.52684204 -37.63818359 24.35684204 C-40.72941656 23.75367463 -43.11900752 24.32089838 -46.20068359 24.85684204 C-47.19068359 24.52684204 -48.18068359 24.19684204 -49.20068359 23.85684204 C-50.91485294 23.76335472 -52.63240564 23.72614335 -54.34912109 23.72402954 C-55.85732422 23.72209595 -55.85732422 23.72209595 -57.39599609 23.72012329 C-58.96994141 23.72592407 -58.96994141 23.72592407 -60.57568359 23.73184204 C-62.13802734 23.72604126 -62.13802734 23.72604126 -63.73193359 23.72012329 C-65.24400391 23.72205688 -65.24400391 23.72205688 -66.78662109 23.72402954 C-67.70491699 23.72515747 -68.62321289 23.7262854 -69.56933594 23.72744751 C-72.20400159 23.8570052 -74.62012107 24.3369535 -77.20068359 24.85684204 C-78.86812376 24.52739979 -80.53465802 24.19336499 -82.20068359 23.85684204 C-85.9732207 23.78441824 -89.74909118 23.92942346 -93.51904297 24.07168579 C-98.51811341 24.16371889 -101.8826751 23.68040962 -106.20068359 20.85684204 C-108.87810223 16.84071409 -109.90028368 13.6540998 -109.20068359 8.85684204 C-107.06179896 4.88462773 -105.42850733 2.46250435 -101.20068359 0.85684204 C-98.42797852 0.57164001 -98.42797852 0.57164001 -95.18115234 0.52212524 C-93.95155792 0.49909332 -92.7219635 0.4760614 -91.45510864 0.45233154 C-90.09947079 0.43708478 -88.74382889 0.42219334 -87.38818359 0.40762329 C-85.9647422 0.38571089 -84.54131076 0.36314323 -83.1178894 0.33996582 C-79.27673041 0.28081989 -75.43553434 0.23567801 -71.5941391 0.19503403 C-69.20435256 0.16938142 -66.81461286 0.14095336 -64.42486572 0.11187744 C-42.95057446 -0.14412784 -21.47478284 -0.25483934 0 0 Z " fill="#0C0C0C" transform="translate(144.20068359375,96.14315795898438)"/>
<path d="M0 0 C2.68779676 -0.00205889 5.37558683 -0.00582125 8.0633812 -0.00990677 C12.37175123 -0.01582891 16.68008523 -0.0158642 20.98845673 -0.011446 C22.59449746 -0.01041445 24.20054011 -0.01095307 25.80657959 -0.01320457 C34.37833724 -0.02312206 42.85521198 0.11466863 51.38164902 1.12293625 C51.38164902 1.45293625 51.38164902 1.78293625 51.38164902 2.12293625 C8.48164902 2.45293625 -34.41835098 2.78293625 -78.61835098 3.12293625 C-78.61835098 4.11293625 -78.61835098 5.10293625 -78.61835098 6.12293625 C-79.27835098 6.55606125 -79.93835098 6.98918625 -80.61835098 7.43543625 C-82.94850991 9.00674924 -82.94850991 9.00674924 -82.93085098 12.06043625 C-82.70354881 15.00973239 -82.70354881 15.00973239 -82.05585098 17.37293625 C-81.61835098 19.12293625 -81.61835098 19.12293625 -82.61835098 21.12293625 C-85.20078034 17.92072385 -85.86381365 15.63314577 -85.55585098 11.62293625 C-84.93768668 7.50184093 -83.65918967 5.07162831 -80.61835098 2.12293625 C-75.79633259 -0.28807295 -68.80561707 0.69034522 -63.43085098 0.56043625 C-62.61242722 0.53958969 -61.79400345 0.51874313 -60.95077896 0.49726486 C-40.63790689 0.00142661 -20.31769843 0.01226968 0 0 Z " fill="#CCCCCC" transform="translate(120.61835098266602,137.8770637512207)"/>
<path d="M0 0 C2.60759554 0.03083402 5.21527849 0.05501418 7.82299805 0.07244873 C11.44197658 0.09948079 15.05956792 0.15264998 18.67810059 0.21432495 C20.27009781 0.22094147 20.27009781 0.22094147 21.89425659 0.22769165 C29.07112733 0.39639162 29.07112733 0.39639162 32.9901123 2.8991394 C33.58582031 3.54584595 34.18152832 4.19255249 34.79528809 4.8588562 C34.46528809 5.5188562 34.13528809 6.1788562 33.79528809 6.8588562 C32.80528809 6.1988562 31.81528809 5.5388562 30.79528809 4.8588562 C30.79528809 5.5188562 30.79528809 6.1788562 30.79528809 6.8588562 C30.13528809 6.8588562 29.47528809 6.8588562 28.79528809 6.8588562 C28.46528809 5.2088562 28.13528809 3.5588562 27.79528809 1.8588562 C-14.77471191 1.8588562 -57.34471191 1.8588562 -101.20471191 1.8588562 C-101.20471191 1.5288562 -101.20471191 1.1988562 -101.20471191 0.8588562 C-67.47485083 0.2010489 -33.73659418 -0.41448169 0 0 Z " fill="#737373" transform="translate(144.2047119140625,96.14114379882813)"/>
<path d="M0 0 C0.77403168 0.00141495 1.54806335 0.0028299 2.34555054 0.00428772 C4.82155192 0.00989222 7.29746338 0.02244542 9.7734375 0.03515625 C11.45051953 0.04017067 13.12760297 0.04473368 14.8046875 0.04882812 C18.91930556 0.0598631 23.03385628 0.07713071 27.1484375 0.09765625 C27.1484375 0.42765625 27.1484375 0.75765625 27.1484375 1.09765625 C9.8234375 1.59265625 9.8234375 1.59265625 -7.8515625 2.09765625 C-7.8515625 3.08765625 -7.8515625 4.07765625 -7.8515625 5.09765625 C-8.5115625 5.53078125 -9.1715625 5.96390625 -9.8515625 6.41015625 C-12.18172143 7.98146924 -12.18172143 7.98146924 -12.1640625 11.03515625 C-11.93676033 13.98445239 -11.93676033 13.98445239 -11.2890625 16.34765625 C-10.8515625 18.09765625 -10.8515625 18.09765625 -11.8515625 20.09765625 C-14.43399186 16.89544385 -15.09702517 14.60786577 -14.7890625 10.59765625 C-14.1708982 6.47656093 -12.89240119 4.04634831 -9.8515625 1.09765625 C-6.73202122 -0.46211439 -3.42196866 -0.02338501 0 0 Z " fill="#C4C4C4" transform="translate(49.8515625,138.90234375)"/>
<path d="M0 0 C7.88359592 -0.10141744 15.76702362 -0.17147331 23.65112305 -0.21972656 C26.33327823 -0.23758325 29.0150546 -0.26541436 31.69702148 -0.30175781 C35.55203066 -0.35027542 39.40645998 -0.37296994 43.26171875 -0.390625 C44.46084396 -0.41127014 45.65996918 -0.43191528 46.89543152 -0.45318604 C55.25845381 -0.45544041 55.25845381 -0.45544041 59.29614258 2.02441406 C59.85841553 2.67635742 60.42068848 3.32830078 61 4 C60.67 4.66 60.34 5.32 60 6 C59.01 5.34 58.02 4.68 57 4 C57 4.66 57 5.32 57 6 C56.34 6 55.68 6 55 6 C54.505 3.525 54.505 3.525 54 1 C36.18 1 18.36 1 0 1 C0 0.67 0 0.34 0 0 Z " fill="#6D6D6D" transform="translate(118,97)"/>
<path d="M0 0 C0.33 0.66 0.66 1.32 1 2 C0.01 2.556875 0.01 2.556875 -1 3.125 C-3.3108499 4.88238873 -3.3108499 4.88238873 -3.3125 7.9375 C-3.08519783 10.88679614 -3.08519783 10.88679614 -2.4375 13.25 C-2 15 -2 15 -3 17 C-4.91677935 14.62319361 -5.99570004 12.83132592 -6.01171875 9.734375 C-5.36226852 3.72453704 -5.36226852 3.72453704 -4 1 C-1.9375 0.375 -1.9375 0.375 0 0 Z " fill="#525252" transform="translate(41,142)"/>
<path d="M0 0 C10.97592998 -0.63019694 10.97592998 -0.63019694 15.25 2 C15.8275 2.66 16.405 3.32 17 4 C16.67 4.66 16.34 5.32 16 6 C15.01 5.34 14.02 4.68 13 4 C13 4.66 13 5.32 13 6 C12.34 6 11.68 6 11 6 C10.67 4.35 10.34 2.7 10 1 C6.7 1 3.4 1 0 1 C0 0.67 0 0.34 0 0 Z " fill="#5E5E5E" transform="translate(162,97)"/>
<path d="M0 0 C-0.33 1.65 -0.66 3.3 -1 5 C-2.98 5.33 -4.96 5.66 -7 6 C-7.33 5.01 -7.66 4.02 -8 3 C-2.25 0 -2.25 0 0 0 Z " fill="#454545" transform="translate(44,55)"/>
<path d="M0 0 C0.33 0 0.66 0 1 0 C1 1.65 1 3.3 1 5 C1.99 5.33 2.98 5.66 4 6 C4 7.65 4 9.3 4 11 C2.29159719 9.36587557 1.06546953 8.13093906 0 6 C-0.039992 4.00039988 -0.04346799 1.99952758 0 0 Z " fill="#898989" transform="translate(35,148)"/>
</svg>
